<svg xmlns="http://www.w3.org/2000/svg" width="2003.157" height="324.973" viewBox="0 0 2003.157 324.973">
  <g id="SVG_Motorbike" data-name="SVG Motorbike" transform="translate(0.047 9.202)">
    <g id="Group_11" data-name="Group 11" transform="translate(-0.047 95.429)">
      <path id="Path_9" data-name="Path 9" d="M2002.752,1080H0v-59.5c84.491-11.4,173.259-22.4,264.009-32.8,123.4-14.1,252.639-27.2,384.174-39.1,135.186-12.1,274.231-23,413.485-32.4,190.366-12.8,379.063-22.5,560.875-29,131.013-4.7,258.9-7.6,380.314-8.8V1080Z" transform="translate(0.3 -859.658)" fill="#fdba1c"/>
      <path id="Path_36" data-name="Path 36" d="M2002.757,1081.7H-.2c84.908-12,174.719-23.3,266.928-33.7,93.879-10.6,191.721-20.3,290.5-28.9,101.284-8.8,205.281-16.6,309.278-23.1,129.657-8.1,259-14.4,384.485-18.4,122.042-4,241.477-6,355.07-6,143.008,0,276.42,3.2,396.585,9.4l.1,100.7Z" transform="translate(0.3 -875.004)" fill="#ff8401"/>
    </g>
    <g id="Group_55" data-name="Group 55" transform="translate(1440.986 -9.202)">
      <g id="Group_54" data-name="Group 54" transform="translate(0)">
        <g id="Group_12" data-name="Group 12" transform="translate(330.644 231.578)">
          <path id="Path_37" data-name="Path 37" d="M1770.2,285.7a40.676,40.676,0,1,1-42.1-39.2A40.679,40.679,0,0,1,1770.2,285.7Z" transform="translate(-1688.874 -246.474)"/>
        </g>
        <g id="Group_13" data-name="Group 13" transform="translate(340.751 241.784)">
          <path id="Path_38" data-name="Path 38" d="M1760,286.1a30.52,30.52,0,1,1-31.6-29.4A30.516,30.516,0,0,1,1760,286.1Z" transform="translate(-1698.98 -256.68)" fill="#4d4d4d"/>
        </g>
        <g id="Group_14" data-name="Group 14" transform="translate(346.454 247.393)">
          <path id="Path_39" data-name="Path 39" d="M1754.3,286.3a24.815,24.815,0,1,1-25.7-24A24.961,24.961,0,0,1,1754.3,286.3Z" transform="translate(-1704.683 -262.289)" fill="#f1f1f1"/>
        </g>
        <g id="Group_15" data-name="Group 15" transform="translate(353.762 254.695)">
          <path id="Path_40" data-name="Path 40" d="M1747.1,286.5a17.562,17.562,0,1,1-18.2-16.9A17.617,17.617,0,0,1,1747.1,286.5Z" transform="translate(-1711.991 -269.591)" fill="#cbcbcb"/>
        </g>
        <g id="Group_16" data-name="Group 16" transform="translate(364.668 265.604)">
          <path id="Path_41" data-name="Path 41" d="M1736.1,286.9a6.6,6.6,0,1,1-6.8-6.4A6.731,6.731,0,0,1,1736.1,286.9Z" transform="translate(-1722.897 -280.5)" fill="#989898"/>
        </g>
        <g id="Group_17" data-name="Group 17" transform="translate(95.944 239.978)">
          <path id="Path_42" data-name="Path 42" d="M1535.5,294.1a40.676,40.676,0,1,1-42.1-39.2A40.679,40.679,0,0,1,1535.5,294.1Z" transform="translate(-1454.174 -254.874)"/>
        </g>
        <g id="Group_18" data-name="Group 18" transform="translate(105.351 249.478)">
          <path id="Path_43" data-name="Path 43" d="M1526.1,294.5a31.271,31.271,0,1,1-32.4-30.1A31.287,31.287,0,0,1,1526.1,294.5Z" transform="translate(-1463.581 -264.374)" fill="#4d4d4d"/>
        </g>
        <g id="Group_19" data-name="Group 19" transform="translate(111.754 255.798)">
          <path id="Path_44" data-name="Path 44" d="M1519.6,294.7a24.815,24.815,0,1,1-25.7-24A25.028,25.028,0,0,1,1519.6,294.7Z" transform="translate(-1469.983 -270.694)" fill="#f1f1f1"/>
        </g>
        <g id="Group_20" data-name="Group 20" transform="translate(111.821 256.011)">
          <circle id="Ellipse_1" data-name="Ellipse 1" cx="17.5" cy="17.5" r="17.5" transform="matrix(0.672, -0.741, 0.741, 0.672, 0, 25.928)" fill="#cbcbcb"/>
        </g>
        <g id="Group_21" data-name="Group 21" transform="translate(129.968 274.101)">
          <path id="Path_45" data-name="Path 45" d="M1501.4,295.4a6.6,6.6,0,1,1-6.8-6.4A6.6,6.6,0,0,1,1501.4,295.4Z" transform="translate(-1488.197 -288.997)" fill="#989898"/>
        </g>
        <g id="Group_22" data-name="Group 22" transform="translate(315.881 220.614)">
          <path id="Path_46" data-name="Path 46" d="M1732.2,283.5a4.62,4.62,0,0,1,.2,6.6h0a4.62,4.62,0,0,1-6.6.2l-50.2-46.7a4.62,4.62,0,0,1-.2-6.6h0a4.62,4.62,0,0,1,6.6-.2Z" transform="translate(-1674.11 -235.51)" fill="#e5e5e5"/>
        </g>
        <g id="Group_25" data-name="Group 25" transform="translate(246.411 85.233)">
          <g id="Group_23" data-name="Group 23" transform="translate(48.16 40.008)">
            <path id="Path_47" data-name="Path 47" d="M1657.5,136.7l6.9-.8s4-8.8,14.5-3.5c10.4,5.3,4.4,11.7-1.6,12.7s-7.1-.4-7.1-.4,6.2-7.6-.5-8.1-6.9,4.8-6.9,4.8l-10,.7Z" transform="translate(-1652.8 -130.702)" fill="#ffd2aa"/>
          </g>
          <g id="Group_24" data-name="Group 24">
            <path id="Path_48" data-name="Path 48" d="M1616.6,90.8c2.1.1,4.7-4.8,9.2,41.5l35,2.4s-8.6,12-6.6,19.5c0,0-36.5-6.7-42.1-12.9C1606.6,135.2,1596.5,89.6,1616.6,90.8Z" transform="translate(-1604.64 -90.694)" fill="#ba7e15"/>
          </g>
        </g>
        <g id="Group_26" data-name="Group 26" transform="translate(59.029 114.6)">
          <path id="Path_49" data-name="Path 49" d="M1655.4,144.8s8.2-15.6,15.5-15.3,9.5,10.5,9.5,10.5a13.906,13.906,0,0,1,7.1-3.7s-4.6,14.1.9,25.7c0,0-3.3,1-6.8-3.4,0,0-6.5,9.3,4.5,25.1,11.1,15.8,17,47.5,17,47.5s46.1-22,67.8,21.5c0,0-35.4-23.5-64.6,2.3-29.1,25.8-16,25-34.8,31.7,0,0,2.1-6.8,4.9-10.6,0,0-11.2,15.6-30.1,16.3s-90.1,2-90.1,2-7.8-.6-8.3-6L1428,291.2s-29,12.5,8.3-37.9c0,0,10.3-6.4,1.2-18.1,0,0,3.3-7.6,22.2-2.6,0,0,5.9-19.2-10.4-22.2l-.1-3.3,76.9-2.8.4,3.9s46.1-9.2,67.4-6.3c0,0-36.9,34.4-4,72.2,0,0,10.6,10.5,73-2.8,0,0,9.2-6,1.7-46.3s10.3-38.9,10.3-38.9Z" transform="translate(-1417.258 -129.496)" fill="#fdba1c"/>
        </g>
        <g id="Group_27" data-name="Group 27" transform="translate(169.44 153.442)">
          <path id="Path_50" data-name="Path 50" d="M1598.6,185.4c6.9.5,11.5,19.3-6.8,18.7s-52.6,2-52.6,2-22.7-21.8-4.4-38.9C1553,150.1,1527.8,180.6,1598.6,185.4Z" transform="translate(-1527.669 -162.043)"/>
        </g>
        <g id="Group_28" data-name="Group 28" transform="translate(298.666 136.644)">
          <path id="Path_51" data-name="Path 51" d="M1656.9,145.5s6.4-4.2,9-.1c2.7,4.1-2.6,6.8-2.6,6.8S1656.7,148.3,1656.9,145.5Z" transform="translate(-1656.896 -143.603)"/>
        </g>
        <g id="Group_29" data-name="Group 29" transform="translate(257.492 246.138)">
          <rect id="Rectangle_9" data-name="Rectangle 9" width="10.1" height="6.3" transform="translate(0 9.23) rotate(-66.057)" fill="#ffd2aa"/>
        </g>
        <g id="Group_30" data-name="Group 30" transform="translate(256.071 255.061)">
          <path id="Path_52" data-name="Path 52" d="M1615.9,267.3a16.768,16.768,0,0,0-1.6,4.6,5.49,5.49,0,0,0,6,2.3l1.7-5.1S1620.1,269.6,1615.9,267.3Z" transform="translate(-1614.3 -267.3)" fill="#e5e5e5"/>
        </g>
        <g id="Group_31" data-name="Group 31" transform="translate(254.67 254.718)">
          <path id="Path_53" data-name="Path 53" d="M1614.7,270.4s3.9,1.9,6.5.4c0,0,7.8-2.6,12-.1a7.01,7.01,0,0,1,3.7,6.6s-15.6,4.6-24-1.1C1612.9,276.2,1613,270.8,1614.7,270.4Z" transform="translate(-1612.9 -269.614)" fill="#b2b2b2"/>
        </g>
        <g id="Group_32" data-name="Group 32" transform="translate(235.292 242.892)">
          <rect id="Rectangle_10" data-name="Rectangle 10" width="11.1" height="6.3" transform="translate(0 10.145) rotate(-66.06)" fill="#ffd2aa"/>
        </g>
        <g id="Group_33" data-name="Group 33" transform="translate(192.371 146.458)">
          <path id="Path_54" data-name="Path 54" d="M1557.6,163.5s-14,5.2-2.4,12.1,60.5,9.1,78.6,4.1c0,0-11.9,21.2-11.2,35.8.6,14.6-5.5,44.5-5.5,44.5s7.1,2.9,9.6,6.4c0,0,26.5-78.1,18.6-92.1-7.9-14.1-53-17.3-53-17.3C1588.4,160.3,1571.1,162.1,1557.6,163.5Z" transform="translate(-1550.601 -157)" fill="#062a46"/>
        </g>
        <g id="Group_34" data-name="Group 34" transform="translate(189.104 145.103)">
          <path id="Path_55" data-name="Path 55" d="M1551.4,156.6s-9.6,11.1.7,19.7c10.3,8.7,53.2,10.5,71.9,8.5,0,0-15.1,19-16.8,33.5s-11.4,37.6-11.4,37.6,6.5,4.1,8.5,7.8c0,0,37.5-67.4,32-82.6-5.5-15.1-49.6-25.6-49.6-25.6C1582.3,158.3,1565,157.4,1551.4,156.6Z" transform="translate(-1547.333 -155.5)" fill="#3e5778"/>
        </g>
        <g id="Group_35" data-name="Group 35" transform="translate(193.17 135.588)">
          <path id="Path_56" data-name="Path 56" d="M1560.2,143.1s-7.5,9.3-8.8,13.5c0,0,30.5,2.6,35.3-.9C1586.7,155.7,1571.2,139.7,1560.2,143.1Z" transform="translate(-1551.4 -142.626)" fill="#ffd2aa"/>
        </g>
        <g id="Group_36" data-name="Group 36" transform="translate(263.571 72.33)">
          <path id="Path_57" data-name="Path 57" d="M1621.8,88.2l9-11.7,11.4,5.3-11.1,13.4Z" transform="translate(-1621.8 -76.5)" fill="#ffd2aa"/>
        </g>
        <g id="Group_37" data-name="Group 37" transform="translate(279.355 2.967)">
          <path id="Path_58" data-name="Path 58" d="M1697.7,44s.8,33.1-12,38.6c0,0-62.1-18.2-45.2-62C1657.5-23.2,1688.6,30.8,1697.7,44Z" transform="translate(-1637.585 -3.768)" fill="#e5e5e5"/>
        </g>
        <g id="Group_38" data-name="Group 38" transform="translate(280.071 29.599)">
          <path id="Path_59" data-name="Path 59" d="M1673.9,30.4l-35.6,23,3.6,10.1,41.9-30Z" transform="translate(-1638.3 -30.4)" fill="#fff"/>
        </g>
        <g id="Group_39" data-name="Group 39" transform="translate(288.171 35.899)">
          <path id="Path_60" data-name="Path 60" d="M1687.4,36.7l-41,34.9,19,16.6,32.3-46Z" transform="translate(-1646.4 -36.7)" fill="#fff"/>
        </g>
        <g id="Group_40" data-name="Group 40" transform="translate(254.212)">
          <path id="Path_61" data-name="Path 61" d="M1619.9,75.6l47.9,26.3s21-14.1,20.3-20.4c0,0-34.9-10-42-37-7.6-28.7,53.1,2.5,53.1,2.5s6.3-51.2-58.9-45.8C1593.4,2.9,1619.9,75.6,1619.9,75.6Z" transform="translate(-1612.441 -0.801)" fill="#eaa51b"/>
        </g>
        <g id="Group_41" data-name="Group 41" transform="translate(258.47 66.832)">
          <path id="Path_62" data-name="Path 62" d="M1618.4,70.9l-1.7,4.4,51.9,28.6,1.3-2.1Z" transform="translate(-1616.7 -70.9)" fill="#333"/>
        </g>
        <g id="Group_42" data-name="Group 42" transform="translate(176.57 76.652)">
          <path id="Path_63" data-name="Path 63" d="M1614.1,81.9s-11.5-1.4-25.5,9c-14.1,10.4-4.7,20.5-25.4,22.6s-25.1,16.7-28.4,25.8c0,0,15.9,3,25.6,8.1s31,9.3,31,9.3,14.8-18.9,23.1-23.7c8.8-5.1,20.4-20,20.8-27.9C1635.6,97.2,1642.1,92.6,1614.1,81.9Z" transform="translate(-1534.8 -81.837)" fill="#eaa51b"/>
        </g>
        <g id="Group_45" data-name="Group 45" transform="translate(232.952 85.511)">
          <g id="Group_43" data-name="Group 43" transform="translate(40.718 52.891)">
            <path id="Path_64" data-name="Path 64" d="M1637.9,146.3l6.9,1s6.1-7.5,14.9.2,1.4,12.4-4.7,11.9-6.8-2.2-6.8-2.2,7.9-5.8,1.5-8c-6.4-2.1-7.9,2.9-7.9,2.9l-9.9-1.8Z" transform="translate(-1631.9 -144.025)" fill="#ffd2aa"/>
          </g>
          <g id="Group_44" data-name="Group 44">
            <path id="Path_65" data-name="Path 65" d="M1609.8,91.7c2,.6,5.7-3.5-1.5,42.5l33.3,11.1s-11.3,9.4-11.2,17.2c0,0-33.6-15.6-37.5-23S1590.6,85.5,1609.8,91.7Z" transform="translate(-1591.182 -91.134)" fill="#fdba1c"/>
          </g>
        </g>
        <g id="Group_46" data-name="Group 46" transform="translate(234.071 251.902)">
          <path id="Path_66" data-name="Path 66" d="M1593.9,264a16.768,16.768,0,0,0-1.6,4.6,5.49,5.49,0,0,0,6,2.3l1.7-5.1C1600,265.9,1598.2,266.4,1593.9,264Z" transform="translate(-1592.3 -264)" fill="#e5e5e5"/>
        </g>
        <g id="Group_47" data-name="Group 47" transform="translate(231.671 252.508)">
          <path id="Path_67" data-name="Path 67" d="M1592.3,268.7s3.6,2.4,6.4,1.1c0,0,8.1-1.7,11.9,1.3a7.193,7.193,0,0,1,3,7s-16.1,2.8-23.7-3.9C1589.9,274.2,1590.6,268.8,1592.3,268.7Z" transform="translate(-1589.9 -268.7)" fill="#b2b2b2"/>
        </g>
        <g id="Group_48" data-name="Group 48" transform="translate(283.268 141.058)">
          <path id="Path_68" data-name="Path 68" d="M1653.6,154.1a6.175,6.175,0,0,1-5.8,6.3,6.105,6.105,0,0,1-6.3-5.8,6.175,6.175,0,0,1,5.8-6.3A6.038,6.038,0,0,1,1653.6,154.1Z" transform="translate(-1641.497 -148.289)"/>
        </g>
        <g id="Group_49" data-name="Group 49" transform="translate(324.547 127.464)">
          <path id="Path_69" data-name="Path 69" d="M1695.4,148.4c.3,7.8-2.3,14.3-5.8,14.4s-6.6-6.1-6.8-14c-.3-7.8,2.3-14.3,5.8-14.4S1695.1,140.5,1695.4,148.4Z" transform="translate(-1682.776 -134.399)" fill="#ffffb5"/>
        </g>
        <g id="Group_50" data-name="Group 50" transform="translate(76.154 222.763)">
          <path id="Path_70" data-name="Path 70" d="M1442.2,242.5c.2,4.8-1.4,8.8-3.6,8.9-2.1.1-4-3.8-4.2-8.6s1.4-8.8,3.6-8.9S1442.1,237.7,1442.2,242.5Z" transform="translate(-1434.383 -233.898)" fill="#faaf3b"/>
        </g>
        <g id="Group_51" data-name="Group 51" transform="translate(0 190.16)">
          <rect id="Rectangle_11" data-name="Rectangle 11" width="167.7" height="4.8" transform="translate(0 6.027) rotate(-2.06)" fill="#9e4a05"/>
        </g>
        <g id="Group_52" data-name="Group 52" transform="translate(3.171 85.794)">
          <path id="Path_71" data-name="Path 71" d="M1511.5,92.4l-139.9,5,.3,10.5-10.5.4,3.5,97.1,160.9-5.8-3.4-97.1Z" transform="translate(-1361.4 -92.4)" fill="#ff8401"/>
        </g>
        <g id="Group_53" data-name="Group 53" transform="translate(3.292 100.795)">
          <rect id="Rectangle_12" data-name="Rectangle 12" width="10.5" height="97.1" transform="translate(0 0.377) rotate(-2.06)" fill="#b75904"/>
        </g>
      </g>
    </g>
  </g>
</svg>
