<?xml version="1.0" encoding="utf-8"?>
<!-- Generator: Adobe Illustrator 24.1.2, SVG Export Plug-In . SVG Version: 6.00 Build 0)  -->
<svg version="1.1" id="Layer_1" xmlns="http://www.w3.org/2000/svg" xmlns:xlink="http://www.w3.org/1999/xlink" x="0px" y="0px"
	 viewBox="0 0 1920.3 509.2" style="enable-background:new 0 0 1920.3 509.2;" xml:space="preserve">
<style type="text/css">
	.st0{fill:#FDBA1C;}
	.st1{enable-background:new    ;}
	.st2{fill:#222222;}
	.st3{fill:#D26B02;}
	.st4{fill:#4D4D4D;}
	.st5{fill:#F1F1F1;}
	.st6{fill:#CBCBCB;}
	.st7{fill:#989898;}
	.st8{fill:#E5E5E5;}
	.st9{fill:#FFD2AA;}
	.st10{fill:#BA7E15;}
	.st11{fill:#B2B2B2;}
	.st12{fill:#062A46;}
	.st13{fill:#3E5778;}
	.st14{fill:#FFFFFF;}
	.st15{fill:#EAA51B;}
	.st16{fill:#333333;}
	.st17{fill:#FFFFB5;}
	.st18{fill:#FAAF3B;}
	.st19{fill:#9E4A05;}
	.st20{fill:#B75904;}
</style>
<g transform="translate(0.253 -570.788)">
	<path class="st0" d="M1920,1080H0v-59.5c81-11.4,166.1-22.4,253.1-32.8c118.3-14.1,242.2-27.2,368.3-39.1
		c129.6-12.1,262.9-23,396.4-32.4c182.5-12.8,363.4-22.5,537.7-29c125.6-4.7,248.2-7.6,364.6-8.8V1080L1920,1080z"/>
	<g class="st1">
		<path class="st0" d="M608.4,917.7l2,28.8c-6.4,2.8-13.9,4.5-22.3,5.1c-26.9,1.9-41.3-10.9-43.2-38.2l-5-70.7l-19.4,1.4l-2-27.9
			l19.4-1.4l-2.4-34l38.3-2.7l2.4,34l23.1-1.6l2,27.9l-23.1,1.6l4.6,66.3c0.4,5.4,1.7,9,3.9,10.9c2.2,1.8,5.9,2.6,11,2.2
			C602,919,605.5,918.5,608.4,917.7z"/>
		<path class="st0" d="M620.4,840.5c4.4-10.9,11.2-19.7,20.6-26.4c9.4-6.7,20.9-10.5,34.5-11.5c13.7-1,25.7,1.2,35.9,6.5
			c10.3,5.3,18.3,13.1,24.2,23.3c5.9,10.2,9.2,22,10.2,35.4l0.2,2.7c0.9,13.4-0.8,25.6-5.1,36.5c-4.4,10.9-11.2,19.7-20.6,26.3
			c-9.4,6.7-20.9,10.5-34.5,11.5c-13.7,1-25.7-1.2-35.9-6.5c-10.3-5.3-18.3-13-24.2-23.2c-5.8-10.2-9.2-22-10.2-35.4l-0.2-2.7
			C614.3,863.6,616,851.4,620.4,840.5z M662.2,904.8c4.8,6.8,11.9,9.8,21.4,9.1c9.3-0.7,15.8-4.7,19.7-12.1c3.8-7.4,5.3-17,4.5-28.7
			l-0.2-2.7c-0.8-11.7-3.6-20.9-8.4-27.8c-4.8-6.9-11.9-10-21.4-9.3c-9.3,0.7-15.8,4.7-19.6,12.3c-3.8,7.5-5.3,17.1-4.5,28.6
			l0.2,2.7C654.5,888.8,657.4,898.1,662.2,904.8z"/>
		<path class="st0" d="M819.6,878.6l-11.9,13.7l2.9,41.2l-38.3,2.7l-13.7-194.7l38.3-2.7l7.5,106.6l5.8-8.7l31.5-43.1l45.9-3.2
			l-45.2,60.3l58.7,76.5l-43.8,3.1L819.6,878.6z"/>
		<path class="st0" d="M979.7,891.7l2,28.8c-6.4,2.8-13.9,4.5-22.3,5.1c-26.9,1.9-41.2-10.9-43.2-38.2l-5-70.7l-19.4,1.4l-2-27.9
			l19.4-1.4l-2.4-34l38.3-2.7l2.4,34l23.1-1.6l2,27.9l-23.1,1.6l4.6,66.3c0.4,5.4,1.7,9,3.9,10.9c2.2,1.8,5.9,2.6,11,2.2
			C973.2,893,976.8,892.5,979.7,891.7z"/>
		<path class="st0" d="M991.6,814.4c4.4-10.9,11.2-19.7,20.6-26.4c9.4-6.7,20.9-10.5,34.5-11.5c13.7-1,25.7,1.2,35.9,6.5
			c10.3,5.3,18.3,13.1,24.2,23.3c5.9,10.2,9.2,22,10.2,35.4l0.2,2.7c0.9,13.4-0.8,25.6-5.1,36.5c-4.4,10.9-11.2,19.7-20.6,26.3
			c-9.4,6.7-20.9,10.5-34.5,11.5c-13.7,1-25.7-1.2-35.9-6.5c-10.3-5.3-18.3-13-24.2-23.2c-5.8-10.2-9.2-22-10.2-35.4l-0.2-2.7
			C985.6,837.5,987.3,825.3,991.6,814.4z M1033.4,878.8c4.8,6.8,11.9,9.8,21.4,9.1c9.3-0.7,15.8-4.7,19.7-12.1
			c3.8-7.4,5.3-17,4.5-28.7l-0.2-2.7c-0.8-11.7-3.6-20.9-8.4-27.8c-4.8-6.9-11.9-10-21.4-9.3c-9.3,0.7-15.8,4.7-19.6,12.3
			c-3.8,7.5-5.3,17.1-4.5,28.6l0.2,2.7C1025.8,862.7,1028.6,872,1033.4,878.8z"/>
		<path class="st0" d="M1190.8,852.5l-11.9,13.7l2.9,41.2l-38.3,2.7l-13.7-194.7l38.3-2.7l7.5,106.6l5.8-8.7l31.5-43.1l45.9-3.2
			l-45.2,60.3l58.7,76.5l-43.8,3.1L1190.8,852.5z"/>
	</g>
	<g class="st1">
		<path class="st0" d="M548.1,783.5l-12.9,0.9l-1.4-20.4l-19.9-33l14.1-1l11.8,23.3l8.4-24.8l13.6-1L546.6,763L548.1,783.5z"/>
		<path class="st0" d="M600.8,758.8c0.9,13.4-6.2,22.8-18.9,23.7c-12.7,0.9-21.1-6.8-22.1-20.9c-0.9-13.4,6.2-22.8,18.9-23.7
			C591.5,737.1,599.8,744.7,600.8,758.8z M572.7,760.7c0.7,9.3,3.4,13,8.5,12.6c5-0.4,7.3-4.6,6.7-13.6c-0.7-9.3-3.4-13-8.5-12.6
			C574.3,747.5,572.1,751.7,572.7,760.7z"/>
		<path class="st0" d="M634.2,777.5l-0.9-5.2c-2.8,4.6-6.7,7.1-12.2,7.5c-7.8,0.5-12-4.2-12.6-12.3l-2.1-30l12.5-0.9l2,28.5
			c0.3,4.3,1.8,5.4,4.4,5.2c2.6-0.2,4.8-2.1,6.4-5.4l-2-29.1l12.5-0.9l2.9,41.9L634.2,777.5z"/>
		<path class="st0" d="M678.6,731.7l-1.1,12.2c-1.4-0.2-2.4-0.4-3.8-0.3c-5.2,0.4-7.1,4.4-8,10.9l1.5,20.7l-12.5,0.9l-2.9-41.9
			l10.9-0.8l1.6,8c1.5-6,5.3-9.7,10.1-10.1C676,731.3,677.3,731.4,678.6,731.7z"/>
	</g>
	<g class="st1">
		<path class="st2" d="M957.8,947.3l-2-4.3c3.3-1.6,3.7-3.4,3.5-6.5l-1.5-22.1l6.2-0.4l1.6,22.3C966,942.9,962.2,945.5,957.8,947.3z
			"/>
		<path class="st2" d="M988.4,928.6c0.5,6.4-3,11-9.1,11.4c-6.1,0.4-10.1-3.3-10.6-10c-0.5-6.4,3-11,9.1-11.4
			C983.9,918.1,987.9,921.8,988.4,928.6z M974.9,929.5c0.3,4.5,1.7,6.2,4.1,6.1c2.4-0.2,3.5-2.2,3.2-6.5c-0.3-4.5-1.7-6.2-4.1-6.1
			C975.7,923.1,974.6,925.1,974.9,929.5z"/>
		<path class="st2" d="M1004.5,937.6l-0.4-2.5c-1.3,2.2-3.2,3.4-5.9,3.6c-3.8,0.3-5.8-2-6.1-5.9l-1-14.4l6-0.4l1,13.7
			c0.1,2,0.9,2.6,2.1,2.5c1.3-0.1,2.3-1,3.1-2.6l-1-14l6-0.4l1.4,20.1L1004.5,937.6z"/>
		<path class="st2" d="M1025.9,915.5l-0.5,5.9c-0.7-0.1-1.2-0.2-1.8-0.1c-2.5,0.2-3.4,2.1-3.8,5.2l0.7,10l-6,0.4l-1.4-20.1l5.2-0.4
			l0.8,3.9c0.7-2.9,2.6-4.7,4.9-4.8C1024.6,915.3,1025.2,915.4,1025.9,915.5z"/>
		<path class="st2" d="M1045.9,919.9l1,14.7l-6,0.4l-1-13.7c-0.1-2.1-0.9-2.6-2.1-2.6c-1.3,0.1-2.4,1.1-3.3,2.9l1,13.8l-6,0.4
			l-1.4-20.1l5.2-0.4l0.6,2.4c1.6-2.1,3.4-3.3,5.9-3.5C1043.4,914,1045.6,916,1045.9,919.9z"/>
		<path class="st2" d="M1068.3,924.7l-12.5,0.9c0.7,3.6,2.4,4.4,4.9,4.3c1.6-0.1,3-0.8,4.7-2.1l2.7,3.2c-1.9,1.7-4.4,3.1-7.7,3.4
			c-6.7,0.5-10.4-3.6-10.9-9.9c-0.4-6,2.5-11,8.6-11.5c5.8-0.4,9.6,3.1,10,9.7C1068.3,923.2,1068.3,924.1,1068.3,924.7z
			 M1062.3,921.3c-0.2-2.7-1.2-4.6-3.6-4.4c-2,0.1-3.1,1.5-3.1,5.1l6.7-0.5L1062.3,921.3z"/>
		<path class="st2" d="M1072.4,941.3l-0.9-4.2c3.9-0.8,5.3-2,6.2-4.7l-2,0.1l-7.6-19.7l6.4-0.4l4.7,16.1l2.8-16.6l6.2-0.4l-5,20.6
			C1082,937.3,1078.7,940.5,1072.4,941.3z"/>
		<path class="st2" d="M1113.9,911.5l-2,3.6c-1.6-0.9-3.3-1.4-4.9-1.3c-1.8,0.1-2.6,0.8-2.5,1.7c0.1,1.1,0.6,1.5,4.3,2.3
			c4.1,0.9,6.4,2.4,6.7,6c0.3,4.2-3.5,6.9-8.5,7.3c-3.5,0.2-6.5-0.8-8.6-2.4l2.7-3.5c1.6,1.1,3.5,1.8,5.4,1.6
			c1.9-0.1,2.9-0.9,2.8-2.1c-0.1-1.4-0.7-1.8-4.4-2.5c-4.1-0.9-6.2-2.8-6.4-5.9c-0.2-3.5,2.7-6.4,7.8-6.7
			C1109.3,909.3,1111.9,910.1,1113.9,911.5z"/>
		<path class="st2" d="M1126.2,929.7c-4.4,0.3-6.8-2.1-7.1-6.8l-0.7-9.3l-2.8,0.2l-0.3-4.2l2.8-0.2l-0.3-4.4l5.9-1.1l0.4,5l4.6-0.3
			l-0.4,4.2l-4,0.3l0.6,9.3c0.1,1.9,0.8,2.6,2.1,2.5c0.7,0,1.4-0.3,2.1-0.8l2.3,3.7C1130.1,928.9,1128.1,929.5,1126.2,929.7z"/>
		<path class="st2" d="M1150.8,923.9l-1,4c-2.4,0-4-0.6-5.1-2.6c-1.3,2.3-3.5,3.3-5.9,3.5c-4,0.3-6.7-2.2-7-5.8
			c-0.3-4.4,2.9-7,9-7.4l2-0.1l-0.1-0.9c-0.2-2.4-1.2-3-3.6-2.9c-1.3,0.1-3.2,0.6-5.2,1.4l-1.6-3.8c2.5-1.1,5.2-1.9,7.5-2
			c5.8-0.4,8.5,1.9,8.8,6.5l0.5,7.8C1149.4,923.1,1149.8,923.6,1150.8,923.9z M1143.4,922.2l-0.3-3.6l-1.5,0.1
			c-2.7,0.2-4,1.2-3.8,3.2c0.1,1.6,1.1,2.5,2.5,2.4C1141.8,924.3,1142.8,923.5,1143.4,922.2z"/>
		<path class="st2" d="M1165.9,905.7l-0.5,5.9c-0.7-0.1-1.2-0.2-1.8-0.1c-2.5,0.2-3.4,2.1-3.8,5.2l0.7,10l-6,0.4l-1.4-20.1l5.2-0.4
			l0.8,3.9c0.7-2.9,2.6-4.7,4.9-4.8C1164.7,905.5,1165.3,905.6,1165.9,905.7z"/>
		<path class="st2" d="M1177.6,926.1c-4.4,0.3-6.8-2.1-7.1-6.8l-0.7-9.3l-2.8,0.2l-0.3-4.2l2.8-0.2l-0.3-4.4l5.9-1.1l0.4,5l4.6-0.3
			l-0.4,4.2l-4,0.3l0.6,9.3c0.1,1.9,0.8,2.6,2.1,2.5c0.7,0,1.4-0.3,2.1-0.8l2.3,3.7C1181.5,925.3,1179.4,925.9,1177.6,926.1z"/>
		<path class="st2" d="M1198.3,905.6l-2,3.6c-1.6-0.9-3.3-1.4-4.9-1.3c-1.8,0.1-2.6,0.8-2.5,1.7c0.1,1.1,0.6,1.5,4.3,2.3
			c4.1,0.9,6.4,2.4,6.7,6c0.3,4.2-3.5,6.9-8.5,7.3c-3.5,0.2-6.5-0.8-8.6-2.4l2.7-3.5c1.6,1.1,3.5,1.8,5.4,1.6
			c1.9-0.1,2.9-0.9,2.8-2.1c-0.1-1.4-0.7-1.8-4.4-2.5c-4.1-0.9-6.2-2.8-6.4-5.9c-0.2-3.5,2.7-6.4,7.8-6.7
			C1193.6,903.4,1196.3,904.2,1198.3,905.6z"/>
	</g>
	<g class="st1">
		<path class="st3" d="M1228.7,907.1l1,14.7l-6,0.4l-1-13.7c-0.1-2.1-0.9-2.6-2.1-2.6c-1.3,0.1-2.4,1.1-3.3,2.9l1,13.8l-6,0.4
			l-1.4-20.1l5.2-0.4l0.6,2.4c1.6-2.1,3.4-3.3,5.9-3.5C1226.2,901.1,1228.4,903.2,1228.7,907.1z"/>
		<path class="st3" d="M1252.1,910.1c0.5,6.4-3,11-9.1,11.4c-6.1,0.4-10.1-3.3-10.6-10c-0.5-6.4,3-11,9.1-11.4
			C1247.6,899.6,1251.6,903.3,1252.1,910.1z M1238.6,911c0.3,4.5,1.7,6.2,4.1,6.1c2.4-0.2,3.5-2.2,3.2-6.5c-0.3-4.5-1.7-6.2-4.1-6.1
			C1239.4,904.6,1238.3,906.6,1238.6,911z"/>
		<path class="st3" d="M1270.5,918.9l-3.7-14.6l-1.6,15l-7.1,0.5l-5.7-19.8l6.1-0.4l3.2,15.5l2-15.9l5.8-0.4l3.9,15.5l1.3-15.8
			l5.7-0.4l-2.8,20.4L1270.5,918.9z"/>
	</g>
	<path class="st3" d="M1920,1081.7H-0.3h0l0.1,0c81.4-12,167.5-23.3,255.9-33.7c90-10.6,183.8-20.3,278.5-28.9
		c97.1-8.8,196.8-16.6,296.5-23.1c124.3-8.1,248.3-14.4,368.6-18.4c117-4,231.5-6,340.4-6c137.1,0,265,3.2,380.2,9.4L1920,1081.7
		L1920,1081.7z"/>
</g>
<g>
	<g>
		<g>
			<path d="M1770.2,285.7c0.8,22.5-16.8,41.3-39.2,42.1c-22.5,0.8-41.3-16.8-42.1-39.2c-0.8-22.5,16.8-41.3,39.2-42.1
				C1750.5,245.7,1769.4,263.2,1770.2,285.7z"/>
		</g>
		<g>
			<path class="st4" d="M1760,286.1c0.6,16.9-12.6,31-29.4,31.6c-16.8,0.6-31-12.6-31.6-29.4c-0.6-16.9,12.6-31,29.4-31.6
				C1745.3,256.1,1759.4,269.2,1760,286.1z"/>
		</g>
		<g>
			<path class="st5" d="M1754.3,286.3c0.5,13.7-10.2,25.2-23.9,25.6c-13.7,0.5-25.2-10.2-25.7-23.9c-0.5-13.7,10.2-25.2,23.9-25.7
				C1742.3,261.9,1753.8,272.6,1754.3,286.3z"/>
		</g>
		<g>
			<path class="st6" d="M1747.1,286.5c0.3,9.7-7.2,17.8-16.9,18.2c-9.7,0.3-17.8-7.2-18.2-16.9c-0.3-9.7,7.2-17.8,16.9-18.2
				C1738.6,269.3,1746.7,276.9,1747.1,286.5z"/>
		</g>
		<g>
			<path class="st7" d="M1736.1,286.9c0.1,3.6-2.7,6.7-6.4,6.8c-3.6,0.1-6.7-2.7-6.8-6.4c-0.1-3.6,2.7-6.7,6.4-6.8
				C1732.9,280.5,1736,283.3,1736.1,286.9z"/>
		</g>
		<g>
			<path d="M1535.5,294.1c0.8,22.5-16.8,41.3-39.2,42.1s-41.3-16.8-42.1-39.2c-0.8-22.5,16.8-41.3,39.2-42.1
				S1534.7,271.7,1535.5,294.1z"/>
		</g>
		<g>
			<path class="st4" d="M1526.1,294.5c0.6,17.3-12.9,31.8-30.1,32.4c-17.3,0.6-31.8-12.9-32.4-30.1c-0.6-17.3,12.9-31.8,30.1-32.4
				C1511,263.7,1525.5,277.2,1526.1,294.5z"/>
		</g>
		<g>
			<path class="st5" d="M1519.6,294.7c0.5,13.7-10.2,25.2-23.9,25.6c-13.7,0.5-25.2-10.2-25.7-23.9s10.2-25.2,23.9-25.7
				C1507.6,270.4,1519.1,281,1519.6,294.7z"/>
		</g>
		<g>
			
				<ellipse transform="matrix(0.6717 -0.7408 0.7408 0.6717 271.7317 1204.4188)" class="st6" cx="1494.8" cy="295.6" rx="17.5" ry="17.5"/>
		</g>
		<g>
			<path class="st7" d="M1501.4,295.4c0.1,3.6-2.7,6.7-6.4,6.8c-3.6,0.1-6.7-2.7-6.8-6.4c-0.1-3.6,2.7-6.7,6.4-6.8
				C1498.2,288.9,1501.3,291.7,1501.4,295.4z"/>
		</g>
		<g>
			<path class="st8" d="M1732.2,283.5c1.9,1.8,2,4.7,0.2,6.6l0,0c-1.8,1.9-4.7,2-6.6,0.2l-50.2-46.7c-1.9-1.8-2-4.7-0.2-6.6l0,0
				c1.8-1.9,4.7-2,6.6-0.2L1732.2,283.5z"/>
		</g>
		<g>
			<g>
				<path class="st9" d="M1657.5,136.7l6.9-0.8c0,0,4-8.8,14.5-3.5c10.4,5.3,4.4,11.7-1.6,12.7c-6,1-7.1-0.4-7.1-0.4
					s6.2-7.6-0.5-8.1c-6.7-0.5-6.9,4.8-6.9,4.8l-10,0.7L1657.5,136.7z"/>
			</g>
			<g>
				<path class="st10" d="M1616.6,90.8c2.1,0.1,4.7-4.8,9.2,41.5l35,2.4c0,0-8.6,12-6.6,19.5c0,0-36.5-6.7-42.1-12.9
					C1606.6,135.2,1596.5,89.6,1616.6,90.8z"/>
			</g>
		</g>
		<g>
			<path class="st0" d="M1655.4,144.8c0,0,8.2-15.6,15.5-15.3c7.3,0.3,9.5,10.5,9.5,10.5s3-3.1,7.1-3.7c0,0-4.6,14.1,0.9,25.7
				c0,0-3.3,1-6.8-3.4c0,0-6.5,9.3,4.5,25.1c11.1,15.8,17,47.5,17,47.5s46.1-22,67.8,21.5c0,0-35.4-23.5-64.6,2.3
				c-29.1,25.8-16,25-34.8,31.7c0,0,2.1-6.8,4.9-10.6c0,0-11.2,15.6-30.1,16.3c-18.9,0.7-90.1,2-90.1,2s-7.8-0.6-8.3-6l-119.9,2.8
				c0,0-29,12.5,8.3-37.9c0,0,10.3-6.4,1.2-18.1c0,0,3.3-7.6,22.2-2.6c0,0,5.9-19.2-10.4-22.2l-0.1-3.3l76.9-2.8l0.4,3.9
				c0,0,46.1-9.2,67.4-6.3c0,0-36.9,34.4-4,72.2c0,0,10.6,10.5,73-2.8c0,0,9.2-6,1.7-46.3c-7.5-40.3,10.3-38.9,10.3-38.9
				L1655.4,144.8z"/>
		</g>
		<g>
			<path d="M1598.6,185.4c6.9,0.5,11.5,19.3-6.8,18.7c-18.3-0.6-52.6,2-52.6,2s-22.7-21.8-4.4-38.9
				C1553,150.1,1527.8,180.6,1598.6,185.4z"/>
		</g>
		<g>
			<path d="M1656.9,145.5c0,0,6.4-4.2,9-0.1c2.7,4.1-2.6,6.8-2.6,6.8S1656.7,148.3,1656.9,145.5z"/>
		</g>
		<g>
			
				<rect x="1615.7" y="260.8" transform="matrix(0.4058 -0.9139 0.9139 0.4058 721.7258 1638.1327)" class="st9" width="10.1" height="6.3"/>
		</g>
		<g>
			<path class="st8" d="M1615.9,267.3c0,0-1.4,2.7-1.6,4.6c0,0,1.7,3.1,6,2.3l1.7-5.1C1622,269.1,1620.1,269.6,1615.9,267.3z"/>
		</g>
		<g>
			<path class="st11" d="M1614.7,270.4c0,0,3.9,1.9,6.5,0.4c0,0,7.8-2.6,12-0.1c4.2,2.4,3.7,6.6,3.7,6.6s-15.6,4.6-24-1.1
				C1612.9,276.2,1613,270.8,1614.7,270.4z"/>
		</g>
		<g>
			
				<rect x="1593.1" y="258" transform="matrix(0.4058 -0.914 0.914 0.4058 711.2291 1616.328)" class="st9" width="11.1" height="6.3"/>
		</g>
		<g>
			<path class="st12" d="M1557.6,163.5c0,0-14,5.2-2.4,12.1c11.6,6.9,60.5,9.1,78.6,4.1c0,0-11.9,21.2-11.2,35.8
				c0.6,14.6-5.5,44.5-5.5,44.5s7.1,2.9,9.6,6.4c0,0,26.5-78.1,18.6-92.1c-7.9-14.1-53-17.3-53-17.3
				C1588.4,160.3,1571.1,162.1,1557.6,163.5z"/>
		</g>
		<g>
			<path class="st13" d="M1551.4,156.6c0,0-9.6,11.1,0.7,19.7c10.3,8.7,53.2,10.5,71.9,8.5c0,0-15.1,19-16.8,33.5
				c-1.7,14.5-11.4,37.6-11.4,37.6s6.5,4.1,8.5,7.8c0,0,37.5-67.4,32-82.6c-5.5-15.1-49.6-25.6-49.6-25.6
				C1582.3,158.3,1565,157.4,1551.4,156.6z"/>
		</g>
		<g>
			<path class="st9" d="M1560.2,143.1c0,0-7.5,9.3-8.8,13.5c0,0,30.5,2.6,35.3-0.9C1586.7,155.7,1571.2,139.7,1560.2,143.1z"/>
		</g>
		<g>
			<polygon class="st9" points="1621.8,88.2 1630.8,76.5 1642.2,81.8 1631.1,95.2 			"/>
		</g>
		<g>
			<path class="st8" d="M1697.7,44c0,0,0.8,33.1-12,38.6c0,0-62.1-18.2-45.2-62C1657.5-23.2,1688.6,30.8,1697.7,44z"/>
		</g>
		<g>
			<polygon class="st14" points="1673.9,30.4 1638.3,53.4 1641.9,63.5 1683.8,33.5 			"/>
		</g>
		<g>
			<polygon class="st14" points="1687.4,36.7 1646.4,71.6 1665.4,88.2 1697.7,42.2 			"/>
		</g>
		<g>
			<path class="st15" d="M1619.9,75.6l47.9,26.3c0,0,21-14.1,20.3-20.4c0,0-34.9-10-42-37c-7.6-28.7,53.1,2.5,53.1,2.5
				s6.3-51.2-58.9-45.8C1593.4,2.9,1619.9,75.6,1619.9,75.6z"/>
		</g>
		<g>
			<polygon class="st16" points="1618.4,70.9 1616.7,75.3 1668.6,103.9 1669.9,101.8 			"/>
		</g>
		<g>
			<path class="st15" d="M1614.1,81.9c0,0-11.5-1.4-25.5,9c-14.1,10.4-4.7,20.5-25.4,22.6c-20.7,2.1-25.1,16.7-28.4,25.8
				c0,0,15.9,3,25.6,8.1c9.7,5.1,31,9.3,31,9.3s14.8-18.9,23.1-23.7c8.8-5.1,20.4-20,20.8-27.9C1635.6,97.2,1642.1,92.6,1614.1,81.9
				z"/>
		</g>
		<g>
			<g>
				<path class="st9" d="M1637.9,146.3l6.9,1c0,0,6.1-7.5,14.9,0.2c8.8,7.7,1.4,12.4-4.7,11.9c-6.1-0.5-6.8-2.2-6.8-2.2
					s7.9-5.8,1.5-8c-6.4-2.1-7.9,2.9-7.9,2.9l-9.9-1.8L1637.9,146.3z"/>
			</g>
			<g>
				<path class="st0" d="M1609.8,91.7c2,0.6,5.7-3.5-1.5,42.5l33.3,11.1c0,0-11.3,9.4-11.2,17.2c0,0-33.6-15.6-37.5-23
					C1589,132.1,1590.6,85.5,1609.8,91.7z"/>
			</g>
		</g>
		<g>
			<path class="st8" d="M1593.9,264c0,0-1.4,2.7-1.6,4.6c0,0,1.7,3.1,6,2.3l1.7-5.1C1600,265.9,1598.2,266.4,1593.9,264z"/>
		</g>
		<g>
			<path class="st11" d="M1592.3,268.7c0,0,3.6,2.4,6.4,1.1c0,0,8.1-1.7,11.9,1.3c3.9,2.9,3,7,3,7s-16.1,2.8-23.7-3.9
				C1589.9,274.2,1590.6,268.8,1592.3,268.7z"/>
		</g>
		<g>
			<path d="M1653.6,154.1c0.1,3.3-2.5,6.1-5.8,6.3s-6.1-2.5-6.3-5.8c-0.1-3.3,2.5-6.1,5.8-6.3S1653.4,150.7,1653.6,154.1z"/>
		</g>
		<g>
			<path class="st17" d="M1695.4,148.4c0.3,7.8-2.3,14.3-5.8,14.4c-3.5,0.1-6.6-6.1-6.8-14c-0.3-7.8,2.3-14.3,5.8-14.4
				S1695.1,140.5,1695.4,148.4z"/>
		</g>
		<g>
			<path class="st18" d="M1442.2,242.5c0.2,4.8-1.4,8.8-3.6,8.9c-2.1,0.1-4-3.8-4.2-8.6c-0.2-4.8,1.4-8.8,3.6-8.9
				C1440.2,233.8,1442.1,237.7,1442.2,242.5z"/>
		</g>
		<g>
			
				<rect x="1358.2" y="202.6" transform="matrix(0.9994 -3.593548e-02 3.593548e-02 0.9994 -6.437 51.9555)" class="st19" width="167.7" height="4.8"/>
		</g>
		<g>
			<polygon class="st3" points="1511.5,92.4 1371.6,97.4 1371.9,107.9 1361.4,108.3 1364.9,205.4 1525.8,199.6 1522.4,102.5 			"/>
		</g>
		<g>
			
				<rect x="1363.2" y="108.1" transform="matrix(0.9994 -3.593548e-02 3.593548e-02 0.9994 -4.7462 49.2769)" class="st20" width="10.5" height="97.1"/>
		</g>
	</g>
</g>
</svg>
